HIERARCHY
ROOT root
{
	OFFSET	0	13.1	24.9
	CHANNELS 6  Xposition Yposition Zposition Xrotation Yrotation Zrotation
	JOINT spine_1
	{
		OFFSET	0	9.99999	0
		CHANNELS 3  Xrotation Yrotation Zrotation
		JOINT spine_2
		{
			OFFSET	0	112	-10
			CHANNELS 3  Xrotation Yrotation Zrotation
			JOINT spine_3
			{
				OFFSET	0	206.5	19.3
				CHANNELS 3  Xrotation Yrotation Zrotation
				JOINT spine_4
				{
					OFFSET	0	110.4	14.6
					CHANNELS 3  Xrotation Yrotation Zrotation
					JOINT neck_1
					{
						OFFSET	0	71.8	-50.3
						CHANNELS 3  Xrotation Yrotation Zrotation
						JOINT neck_2
						{
							OFFSET	0	86.2	-25.8
							CHANNELS 3  Xrotation Yrotation Zrotation
							JOINT head_ee
							{
								OFFSET	0	179.8	-8.7
								CHANNELS 3  Xrotation Yrotation Zrotation
								End Site
								{
									OFFSET	1	0	0
								}
							}
						}
					}
					JOINT left_clavicle
					{
						OFFSET	-43.2	22.4	-70.8
						CHANNELS 3  Xrotation Yrotation Zrotation
						JOINT left_shoulder
						{
							OFFSET	-93.9	-5.79999	48.7
							CHANNELS 3  Xrotation Yrotation Zrotation
							JOINT left_elbow
							{
								OFFSET	-291.4	-30.8	15.2
								CHANNELS 3  Xrotation Yrotation Zrotation
								JOINT left_lowarm_twist
								{
									OFFSET	-110.7	-3.89999	13.6
									CHANNELS 3  Xrotation Yrotation Zrotation
									JOINT left_hand
									{
										OFFSET	-110.7	-3.89999	13.6
										CHANNELS 3  Xrotation Yrotation Zrotation
										JOINT left_ee
										{
											OFFSET	-80.8	-5.10001	12.1
											CHANNELS 3  Xrotation Yrotation Zrotation
											End Site
											{
												OFFSET	1	0	0
											}
										}
									}
								}
							}
						}
					}
					JOINT right_clavicle
					{
						OFFSET	43.2	22.4	-70.8
						CHANNELS 3  Xrotation Yrotation Zrotation
						JOINT right_shoulder
						{
							OFFSET	93.9	-5.79999	48.7
							CHANNELS 3  Xrotation Yrotation Zrotation
							JOINT right_elbow
							{
								OFFSET	291.4	-30.8	15.2
								CHANNELS 3  Xrotation Yrotation Zrotation
								JOINT right_lowarm_twist
								{
									OFFSET	110.7	-3.89999	13.6
									CHANNELS 3  Xrotation Yrotation Zrotation
									JOINT right_hand
									{
										OFFSET	110.7	-3.89999	13.6
										CHANNELS 3  Xrotation Yrotation Zrotation
										JOINT right_ee
										{
											OFFSET	80.8	-5.10001	12.1
											CHANNELS 3  Xrotation Yrotation Zrotation
											End Site
											{
												OFFSET	1	0	0
											}
										}
									}
								}
							}
						}
					}
				}
			}
		}
	}
	JOINT left_hip
	{
		OFFSET	-82.8	-127.5	0.300001
		CHANNELS 3  Xrotation Yrotation Zrotation
		JOINT left_knee
		{
			OFFSET	-28.2	-396.7	2.2
			CHANNELS 3  Xrotation Yrotation Zrotation
			JOINT left_ankle
			{
				OFFSET	-11.7	-411.3	35.4
				CHANNELS 3  Xrotation Yrotation Zrotation
				JOINT left_toes
				{
					OFFSET	0	-60	-88.6
					CHANNELS 3  Xrotation Yrotation Zrotation
					JOINT left_foot_ee
					{
						OFFSET	-22.5	-16.5	-42.2
						CHANNELS 3  Xrotation Yrotation Zrotation
						End Site
						{
							OFFSET	1	0	0
						}
					}
				}
			}
		}
	}
	JOINT right_hip
	{
		OFFSET	82.8	-127.5	0.300001
		CHANNELS 3  Xrotation Yrotation Zrotation
		JOINT right_knee
		{
			OFFSET	28.2	-396.7	2.2
			CHANNELS 3  Xrotation Yrotation Zrotation
			JOINT right_ankle
			{
				OFFSET	11.7	-411.3	35.4
				CHANNELS 3  Xrotation Yrotation Zrotation
				JOINT right_toes
				{
					OFFSET	0	-60	-88.6
					CHANNELS 3  Xrotation Yrotation Zrotation
					JOINT right_foot_ee
					{
						OFFSET	22.5	-16.5	-42.2
						CHANNELS 3  Xrotation Yrotation Zrotation
						End Site
						{
							OFFSET	1	0	0
						}
					}
				}
			}
		}
	}
}
MOTION
Frames: 13
Frame Time: 0.02
2615.63878609 742.848 -1544.29125516 -22.2033205401 86.4038341051 18.3624252316 1.3766 0.168808 1.66679 1.37815 0.0624184 1.67415 1.38015 -0.251081 1.6564 1.37633 0.0136294 1.67526 -24.1658 17.9361 -5.09868 -27.2278 36.6531 5.37057 -0.0 0.0 -0.0 -4.49633 20.3593 -4.21408 -7.83156 -38.4209 71.411 0.216981 -6.13508 0.011628 -57.8908 -5.02166 5.03069 1.07103 9.95148 11.0569 -0.0 0.0 -0.0 10.1812 -2.82974 -19.858 -13.8819 15.4883 -63.3329 1.80259 41.7593 -0.687655 84.1019 4.31931 8.82388 -5.03427 -26.8923 17.5212 0.0 0.0 0.0 12.7172 9.03397 -8.03045 -34.6796 -0.16343 5.23933 30.3577 5.11304 -3.92676 -8.18264 0.0 0.0 -0.0 0.0 -0.0 6.75614 17.9263 -1.66807 4.04361 0.187511 0.591956 27.7567 -7.72081 3.64456 -29.6361 0.0 0.0 0.0 0.0 0.0 
2602.975547 742.763 -1540.049775 -79.6537398411 88.5955684611 76.1100059298 1.41551 0.130037 1.64062 1.41701 0.0253913 1.64556 1.41788 -0.281067 1.62159 1.41421 -0.0214761 1.64562 -24.5455 18.2576 -4.99792 -27.7968 37.175 5.84034 -0.0 0.0 -0.0 -5.01079 20.4814 -4.94644 -8.6671 -38.8076 72.0107 0.226875 -6.41256 0.0127092 -58.4318 -5.0884 5.04969 1.23375 11.1131 12.5487 -0.0 0.0 -0.0 10.206 -3.09763 -19.8893 -14.0823 15.2879 -63.1166 1.8746 42.8761 -0.736138 83.5203 4.25024 8.79562 -4.56956 -26.3401 15.2037 0.0 0.0 0.0 13.6648 8.53453 -8.27605 -31.7855 -0.0284562 4.81584 28.9937 5.58831 -3.77978 -8.52154 0.0 0.0 -0.0 0.0 -0.0 5.31823 18.3026 -1.75115 4.90933 0.233069 0.716919 26.0703 -6.67972 3.45376 -29.4619 0.0 0.0 0.0 0.0 0.0 
2583.02107237 742.913 -1528.91331891 -160.229094157 85.8077945097 156.597183137 1.38461 0.151144 1.64616 1.38612 0.0461026 1.65244 1.38761 -0.262851 1.63206 1.3839 -0.0018354 1.65308 -18.543 18.3192 -5.78204 -20.7313 38.2327 2.80651 -0.0 0.0 -0.0 -5.66734 17.3953 -6.76697 -9.93218 -36.3572 75.0191 0.280309 -7.90555 0.019369 -54.3961 -4.59521 4.89284 2.9098 -1.39573 19.2831 -0.0 0.0 -0.0 10.214 -4.67837 -19.7839 -13.1895 12.3388 -62.0136 2.01547 44.9491 -0.833856 83.1471 4.20607 8.77713 -1.15031 -21.9786 -2.08315 0.0 0.0 0.0 13.5781 8.73085 -7.45019 -14.9797 0.321646 2.26977 22.7244 -14.1588 -3.28027 -5.07042 0.0 0.0 -0.0 0.0 -0.0 4.95948 12.2756 -2.64512 1.19728 0.0511511 0.176603 32.1504 -8.14811 4.1167 -27.3784 0.0 0.0 0.0 0.0 0.0 
2577.49538157 740.773 -1520.18215931 -168.496809503 83.8161141818 164.818118113 1.374 0.110909 1.62236 1.37546 0.00746249 1.62613 1.37582 -0.296249 1.59894 1.37225 -0.0400422 1.62566 -16.8473 17.7331 -5.44024 -18.5488 37.0219 2.11662 -0.0 0.0 -0.0 -6.06086 19.3724 -6.83046 -10.1558 -37.6509 74.9454 0.304348 -8.57382 0.0228142 -56.0121 -4.79137 4.95982 2.81843 -1.14968 18.7344 -0.0 0.0 -0.0 10.353 -5.35356 -20.0023 -12.6281 10.0757 -61.6219 2.2223 47.7422 -0.983545 83.355 4.23065 8.78746 -0.748832 -19.2607 -3.29184 0.0 0.0 0.0 14.7994 8.09235 -7.08426 -17.534 0.316842 2.66162 24.8228 -15.155 -3.56447 -3.99825 0.0 0.0 -0.0 0.0 -0.0 3.5675 13.3324 -2.51893 2.18999 0.0963585 0.322212 31.9918 -9.5167 4.10528 -26.3334 0.0 0.0 0.0 0.0 0.0 
2510.42187246 732.104 -1500.13390184 -176.759473228 70.4706393626 175.295336863 1.48701 0.0748798 1.77798 1.48877 -0.0383909 1.77914 1.48768 -0.366497 1.74141 1.48346 -0.0869195 1.77743 -14.8863 11.1361 -3.73817 -15.3499 23.5018 0.27164 -0.0 0.0 -0.0 -7.84189 11.1375 -12.2918 -11.5716 -39.2788 78.7701 0.586569 -16.2024 0.0834942 -51.9877 -4.30647 4.7828 5.97788 -15.5988 35.4376 -0.0 0.0 -0.0 10.7961 -6.86467 -20.7289 -15.887 2.78366 -62.2379 2.07202 45.7414 -0.874084 83.7666 4.27946 8.80768 2.7308 -15.9253 -24.1053 0.0 0.0 0.0 12.6112 9.88315 -9.5015 -7.48755 0.235094 1.12425 29.3203 -29.7359 -4.70535 1.67791 -0.0 -0.0 -0.0 0.0 -0.0 0.542514 9.4808 -5.93123 -1.80964 -0.0702701 -0.268816 41.3278 -7.83377 4.9777 -10.9408 0.0 0.0 0.0 0.0 0.0 
2493.64768435 737.053 -1488.70375839 179.886298547 68.6424020712 178.646269195 1.35644 0.346948 1.6855 1.35799 0.239008 1.70415 1.3654 -0.0835586 1.7188 1.36132 0.188901 1.71043 -19.1991 8.80674 -3.15675 -19.6581 18.6007 0.712682 -0.0 0.0 -0.0 -7.66248 8.41856 -12.7949 -10.5603 -42.3262 82.1146 0.580046 -16.0315 0.0816835 -51.6168 -4.26242 4.76478 6.35544 -17.6749 37.1209 -0.0 0.0 -0.0 10.9063 -6.54488 -20.9807 -16.5921 0.983887 -62.7254 1.81587 41.9683 -0.696523 83.2536 4.21866 8.78243 2.44614 -15.3573 -22.002 0.0 0.0 0.0 12.051 10.9365 -9.24403 -9.71352 0.276447 1.4633 31.4007 -28.611 -4.89564 0.526094 -0.0 -0.0 -0.0 0.0 -0.0 -1.79604 11.8811 -5.83643 -3.17016 -0.117483 -0.472273 40.8082 -7.4029 4.93183 -6.02448 0.0 0.0 0.0 0.0 0.0 
2493.69691235 737.053 -1489.68444287 179.88536231 68.8252684204 178.647273842 1.35644 0.346948 1.6855 1.35799 0.239008 1.70415 1.3654 -0.0835586 1.7188 1.36132 0.188901 1.71043 -19.1991 8.80674 -3.15675 -19.6581 18.6007 0.712682 -0.0 0.0 -0.0 -7.66248 8.41856 -12.7949 -10.5603 -42.3262 82.1146 0.580046 -16.0315 0.0816835 -51.6168 -4.26242 4.76478 6.35544 -17.6749 37.1209 -0.0 0.0 -0.0 10.9063 -6.54488 -20.9807 -16.5921 0.983887 -62.7254 1.81587 41.9683 -0.696523 83.2536 4.21866 8.78243 2.44614 -15.3573 -22.002 0.0 0.0 0.0 12.051 10.9365 -9.24403 -9.71352 0.276447 1.4633 31.4007 -28.611 -4.89564 0.526094 -0.0 -0.0 -0.0 0.0 -0.0 -1.79604 11.8811 -5.83643 -3.17016 -0.117483 -0.472273 40.8082 -7.4029 4.93183 -6.02448 0.0 0.0 0.0 0.0 0.0 
2493.73579161 737.053 -1490.41808546 179.884650898 68.9620890053 178.648036411 1.35644 0.346948 1.6855 1.35799 0.239008 1.70415 1.3654 -0.0835586 1.7188 1.36132 0.188901 1.71043 -19.1991 8.80674 -3.15675 -19.6581 18.6007 0.712682 -0.0 0.0 -0.0 -7.66248 8.41856 -12.7949 -10.5603 -42.3262 82.1146 0.580046 -16.0315 0.0816835 -51.6168 -4.26242 4.76478 6.35544 -17.6749 37.1209 -0.0 0.0 -0.0 10.9063 -6.54488 -20.9807 -16.5921 0.983887 -62.7254 1.81587 41.9683 -0.696523 83.2536 4.21866 8.78243 2.44614 -15.3573 -22.002 0.0 0.0 0.0 12.051 10.9365 -9.24403 -9.71352 0.276447 1.4633 31.4007 -28.611 -4.89564 0.526094 -0.0 -0.0 -0.0 0.0 -0.0 -1.79604 11.8811 -5.83643 -3.17016 -0.117483 -0.472273 40.8082 -7.4029 4.93183 -6.02448 0.0 0.0 0.0 0.0 0.0 
2493.75035024 737.053 -1490.68459366 179.884390087 69.0117957629 178.648315801 1.35644 0.346948 1.6855 1.35799 0.239008 1.70415 1.3654 -0.0835586 1.7188 1.36132 0.188901 1.71043 -19.1991 8.80674 -3.15675 -19.6581 18.6007 0.712682 -0.0 0.0 -0.0 -7.66248 8.41856 -12.7949 -10.5603 -42.3262 82.1146 0.580046 -16.0315 0.0816835 -51.6168 -4.26242 4.76478 6.35544 -17.6749 37.1209 -0.0 0.0 -0.0 10.9063 -6.54488 -20.9807 -16.5921 0.983887 -62.7254 1.81587 41.9683 -0.696523 83.2536 4.21866 8.78243 2.44614 -15.3573 -22.002 0.0 0.0 0.0 12.051 10.9365 -9.24403 -9.71352 0.276447 1.4633 31.4007 -28.611 -4.89564 0.526094 -0.0 -0.0 -0.0 0.0 -0.0 -1.79604 11.8811 -5.83643 -3.17016 -0.117483 -0.472273 40.8082 -7.4029 4.93183 -6.02448 0.0 0.0 0.0 0.0 0.0 
2490.08271822 740.937 -1492.27910552 -179.645837583 68.691168309 178.037109946 1.50534 0.406019 1.57656 1.50667 0.304889 1.59919 1.51542 0.00506505 1.62798 1.51182 0.262077 1.60676 -20.8509 7.73989 -4.31877 -21.2644 17.0486 -0.586431 -0.0 0.0 -0.0 -7.5193 7.28252 -12.8596 -10.1224 -43.269 82.583 0.619389 -17.0576 0.0928874 -50.8283 -4.16916 4.72552 6.27372 -18.948 35.5846 -0.0 0.0 -0.0 11.0099 -4.87835 -21.3598 -17.5082 1.04624 -63.2094 1.71444 40.3372 -0.629765 82.9484 4.1826 8.76716 2.32771 -15.2506 -21.1724 0.0 0.0 0.0 11.9725 11.1447 -9.50826 -9.9482 0.280038 1.49914 29.8227 -28.6192 -4.70383 0.0204108 -0.0 -0.0 -0.0 0.0 -0.0 -2.39282 12.3722 -5.79363 -2.02482 -0.078059 -0.30092 39.0945 -8.44061 4.78674 -4.73483 0.0 0.0 0.0 0.0 0.0 
2490.09115523 740.937 -1492.4202634 -179.645424763 68.7171857334 178.036666872 1.50534 0.406019 1.57656 1.50667 0.304889 1.59919 1.51542 0.00506505 1.62798 1.51182 0.262077 1.60676 -20.8509 7.73989 -4.31877 -21.2644 17.0486 -0.586431 -0.0 0.0 -0.0 -7.5193 7.28252 -12.8596 -10.1224 -43.269 82.583 0.619389 -17.0576 0.0928874 -50.8283 -4.16916 4.72552 6.27372 -18.948 35.5846 -0.0 0.0 -0.0 11.0099 -4.87835 -21.3598 -17.5082 1.04624 -63.2094 1.71444 40.3372 -0.629765 82.9484 4.1826 8.76716 2.32771 -15.2506 -21.1724 0.0 0.0 0.0 11.9725 11.1447 -9.50826 -9.9482 0.280038 1.49914 29.8227 -28.6192 -4.70383 0.0204108 -0.0 -0.0 -0.0 0.0 -0.0 -2.39282 12.3722 -5.79363 -2.02482 -0.078059 -0.30092 39.0945 -8.44061 4.78674 -4.73483 0.0 0.0 0.0 0.0 0.0 
2489.84890389 740.937 -1487.81160035 -179.658383523 67.8680772562 178.050614362 1.50534 0.406019 1.57656 1.50667 0.304889 1.59919 1.51542 0.00506505 1.62798 1.51182 0.262077 1.60676 -20.8509 7.73989 -4.31877 -21.2644 17.0486 -0.586431 -0.0 0.0 -0.0 -7.5193 7.28252 -12.8596 -10.1224 -43.269 82.583 0.619389 -17.0576 0.0928874 -50.8283 -4.16916 4.72552 6.27372 -18.948 35.5846 -0.0 0.0 -0.0 11.0099 -4.87835 -21.3598 -17.5082 1.04624 -63.2094 1.71444 40.3372 -0.629765 82.9484 4.1826 8.76716 2.32771 -15.2506 -21.1724 0.0 0.0 0.0 11.9725 11.1447 -9.50826 -9.9482 0.280038 1.49914 29.8227 -28.6192 -4.70383 0.0204108 -0.0 -0.0 -0.0 0.0 -0.0 -2.39282 12.3722 -5.79363 -2.02482 -0.078059 -0.30092 39.0945 -8.44061 4.78674 -4.73483 0.0 0.0 0.0 0.0 0.0 
2489.72400914 740.937 -1484.69902803 -179.666567663 67.2949432518 178.059467493 1.50534 0.406019 1.57656 1.50667 0.304889 1.59919 1.51542 0.00506505 1.62798 1.51182 0.262077 1.60676 -20.8509 7.73989 -4.31877 -21.2644 17.0486 -0.586431 -0.0 0.0 -0.0 -7.5193 7.28252 -12.8596 -10.1224 -43.269 82.583 0.619389 -17.0576 0.0928874 -50.8283 -4.16916 4.72552 6.27372 -18.948 35.5846 -0.0 0.0 -0.0 11.0099 -4.87835 -21.3598 -17.5082 1.04624 -63.2094 1.71444 40.3372 -0.629765 82.9484 4.1826 8.76716 2.32771 -15.2506 -21.1724 0.0 0.0 0.0 11.9725 11.1447 -9.50826 -9.9482 0.280038 1.49914 29.8227 -28.6192 -4.70383 0.0204108 -0.0 -0.0 -0.0 0.0 -0.0 -2.39282 12.3722 -5.79363 -2.02482 -0.078059 -0.30092 39.0945 -8.44061 4.78674 -4.73483 0.0 0.0 0.0 0.0 0.0 
